HIERARCHY
ROOT Hips
{
  OFFSET 5.84602e-005 68.8428 3.50346
  CHANNELS 6 Xposition Yposition Zposition Zrotation Xrotation Yrotation
  JOINT Spine
  {
    OFFSET 0 8.597 -4.6522
    CHANNELS 3 Zrotation Xrotation Yrotation
    JOINT Spine1
    {
      OFFSET 0 7.8454 0.4098
      CHANNELS 3 Zrotation Xrotation Yrotation
      JOINT Spine2
      {
        OFFSET 0 9.7078 -2.1609
        CHANNELS 3 Zrotation Xrotation Yrotation
        JOINT Neck
        {
          OFFSET 0 21.8761 -0.4549
          CHANNELS 3 Zrotation Xrotation Yrotation
          JOINT Head
          {
            OFFSET 0 12.3537 3.3602
            CHANNELS 3 Zrotation Xrotation Yrotation
            End Site
            {
              OFFSET 0.0001 18.9506 0.5657
            }
          }
        }
        JOINT LeftShoulder
        {
          OFFSET 2.2086 21.1115 7.2329
          CHANNELS 3 Zrotation Xrotation Yrotation
          JOINT LeftArm
          {
            OFFSET 13.1193 3.0282 -4.8998
            CHANNELS 3 Zrotation Xrotation Yrotation
            JOINT LeftForeArm
            {
              OFFSET 27.4081 -0.0973053 -0.2375
              CHANNELS 3 Zrotation Xrotation Yrotation
              JOINT LeftHand
              {
                OFFSET 22.8641 0.0662994 -0.1369
                CHANNELS 3 Zrotation Xrotation Yrotation
                JOINT LeftHandIndex1
                {
                  OFFSET 8.8614 0.775009 2.4612
                  CHANNELS 3 Zrotation Xrotation Yrotation
                  JOINT LeftHandIndex2
                  {
                    OFFSET 3.3146 -0.808304 0.5841
                    CHANNELS 3 Zrotation Xrotation Yrotation
                    JOINT LeftHandIndex3
                    {
                      OFFSET 2.2628 -0.552002 0.3989
                      CHANNELS 3 Zrotation Xrotation Yrotation
                      End Site
                      {
                        OFFSET 1.6102 -0.4807 0.2612
                      }
                    }
                  }
                }
                JOINT LeftHandMiddle1
                {
                  OFFSET 8.9937 0.895004 0.2143
                  CHANNELS 3 Zrotation Xrotation Yrotation
                  JOINT LeftHandMiddle2
                  {
                    OFFSET 4.0984 0.0113983 -0.0242
                    CHANNELS 3 Zrotation Xrotation Yrotation
                    JOINT LeftHandMiddle3
                    {
                      OFFSET 2.2716 0.00689697 -0.0138001
                      CHANNELS 3 Zrotation Xrotation Yrotation
                      End Site
                      {
                        OFFSET 2.0404 -0.1441 0.0027
                      }
                    }
                  }
                }
                JOINT LeftHandRing1
                {
                  OFFSET 8.5234 0.597198 -2.0164
                  CHANNELS 3 Zrotation Xrotation Yrotation
                  JOINT LeftHandRing2
                  {
                    OFFSET 3.7188 -0.188293 -0.2328
                    CHANNELS 3 Zrotation Xrotation Yrotation
                    JOINT LeftHandRing3
                    {
                      OFFSET 2.1191 -0.106598 -0.1332
                      CHANNELS 3 Zrotation Xrotation Yrotation
                      End Site
                      {
                        OFFSET 1.8737 -0.2304 -0.0886
                      }
                    }
                  }
                }
                JOINT LeftHandPinky1
                {
                  OFFSET 7.9094 -0.601089 -3.4825
                  CHANNELS 3 Zrotation Xrotation Yrotation
                  JOINT LeftHandPinky2
                  {
                    OFFSET 2.2874 -0.477005 -0.6314
                    CHANNELS 3 Zrotation Xrotation Yrotation
                    JOINT LeftHandPinky3
                    {
                      OFFSET 1.6774 -0.349396 -0.4633
                      CHANNELS 3 Zrotation Xrotation Yrotation
                      End Site
                      {
                        OFFSET 1.4888 -0.4091 -0.3416
                      }
                    }
                  }
                }
                JOINT LeftHandThumb1
                {
                  OFFSET 1.833 -1.3875 1.3896
                  CHANNELS 3 Zrotation Xrotation Yrotation
                  JOINT LeftHandThumb2
                  {
                    OFFSET 3.4129 -1.121 2.5732
                    CHANNELS 3 Zrotation Xrotation Yrotation
                    JOINT LeftHandThumb3
                    {
                      OFFSET 2.2474 -0.804199 1.6192
                      CHANNELS 3 Zrotation Xrotation Yrotation
                      End Site
                      {
                        OFFSET 1.6527 -0.5689 1.1317
                      }
                    }
                  }
                }
              }
            }
          }
        }
        JOINT RightShoulder
        {
          OFFSET -2.2086 21.1115 7.2329
          CHANNELS 3 Zrotation Xrotation Yrotation
          JOINT RightArm
          {
            OFFSET -13.1216 3.0287 -4.9007
            CHANNELS 3 Zrotation Xrotation Yrotation
            JOINT RightForeArm
            {
              OFFSET -27.4081 -0.0973053 -0.2375
              CHANNELS 3 Zrotation Xrotation Yrotation
              JOINT RightHand
              {
                OFFSET -22.8641 0.0664063 -0.1369
                CHANNELS 3 Zrotation Xrotation Yrotation
                JOINT RightHandIndex1
                {
                  OFFSET -8.8614 0.774994 2.4612
                  CHANNELS 3 Zrotation Xrotation Yrotation
                  JOINT RightHandIndex2
                  {
                    OFFSET -3.3146 -0.808304 0.5841
                    CHANNELS 3 Zrotation Xrotation Yrotation
                    JOINT RightHandIndex3
                    {
                      OFFSET -2.2628 -0.552002 0.3989
                      CHANNELS 3 Zrotation Xrotation Yrotation
                      End Site
                      {
                        OFFSET -1.6102 -0.4807 0.2612
                      }
                    }
                  }
                }
                JOINT RightHandMiddle1
                {
                  OFFSET -8.9937 0.894989 0.2143
                  CHANNELS 3 Zrotation Xrotation Yrotation
                  JOINT RightHandMiddle2
                  {
                    OFFSET -4.0984 0.0113983 -0.0242
                    CHANNELS 3 Zrotation Xrotation Yrotation
                    JOINT RightHandMiddle3
                    {
                      OFFSET -2.2716 0.00691223 -0.0138001
                      CHANNELS 3 Zrotation Xrotation Yrotation
                      End Site
                      {
                        OFFSET -2.0404 -0.1441 0.0027
                      }
                    }
                  }
                }
                JOINT RightHandRing1
                {
                  OFFSET -8.5234 0.597198 -2.0164
                  CHANNELS 3 Zrotation Xrotation Yrotation
                  JOINT RightHandRing2
                  {
                    OFFSET -3.7188 -0.188309 -0.2328
                    CHANNELS 3 Zrotation Xrotation Yrotation
                    JOINT RightHandRing3
                    {
                      OFFSET -2.1191 -0.106598 -0.1332
                      CHANNELS 3 Zrotation Xrotation Yrotation
                      End Site
                      {
                        OFFSET -1.8737 -0.2304 -0.0886
                      }
                    }
                  }
                }
                JOINT RightHandPinky1
                {
                  OFFSET -7.9094 -0.601105 -3.4825
                  CHANNELS 3 Zrotation Xrotation Yrotation
                  JOINT RightHandPinky2
                  {
                    OFFSET -2.2874 -0.477005 -0.6314
                    CHANNELS 3 Zrotation Xrotation Yrotation
                    JOINT RightHandPinky3
                    {
                      OFFSET -1.6774 -0.349396 -0.4633
                      CHANNELS 3 Zrotation Xrotation Yrotation
                      End Site
                      {
                        OFFSET -1.4888 -0.4091 -0.3416
                      }
                    }
                  }
                }
                JOINT RightHandThumb1
                {
                  OFFSET -1.833 -1.38751 1.3896
                  CHANNELS 3 Zrotation Xrotation Yrotation
                  JOINT RightHandThumb2
                  {
                    OFFSET -3.41299 -1.12099 2.5732
                    CHANNELS 3 Zrotation Xrotation Yrotation
                    JOINT RightHandThumb3
                    {
                      OFFSET -2.24741 -0.804108 1.6192
                      CHANNELS 3 Zrotation Xrotation Yrotation
                      End Site
                      {
                        OFFSET -1.6527 -0.5689 1.1317
                      }
                    }
                  }
                }
              }
            }
          }
        }
      }
    }
  }
  JOINT RightUpLeg
  {
    OFFSET -9.1966 3.8861 -0.7581
    CHANNELS 3 Zrotation Xrotation Yrotation
    JOINT RightLeg
    {
      OFFSET -0.7359 -41.0265 0
      CHANNELS 3 Zrotation Xrotation Yrotation
      JOINT RightFoot
      {
        OFFSET 0 -40.2855 0
        CHANNELS 3 Zrotation Xrotation Yrotation
        JOINT RightToeBase
        {
          OFFSET 0 -5.6122 11.7359
          CHANNELS 3 Zrotation Xrotation Yrotation
          End Site
          {
            OFFSET 0 0 7.8731
          }
        }
      }
    }
  }
  JOINT LeftUpLeg
  {
    OFFSET 9.1965 3.8864 -0.7581
    CHANNELS 3 Zrotation Xrotation Yrotation
    JOINT LeftLeg
    {
      OFFSET 0.7359 -41.0268 0
      CHANNELS 3 Zrotation Xrotation Yrotation
      JOINT LeftFoot
      {
        OFFSET 0 -40.2855 0
        CHANNELS 3 Zrotation Xrotation Yrotation
        JOINT LeftToeBase
        {
          OFFSET 0 -5.6122 11.7359
          CHANNELS 3 Zrotation Xrotation Yrotation
          End Site
          {
            OFFSET 0 0 7.8731
          }
        }
      }
    }
  }
}
MOTION
Frames:	4
Frame Time:	0.0333333
5.84602e-005 68.8428 3.50346 0 0 -0 0 0 -0 0 0 -0 0 0 -0 0 0 -0 0 0 -0 0 0 -0 0 0 -0 0 0 -0 0 0 -0 0 0 -0 0 0 -0 0 0 -0 0 0 -0 -0.0146107 -8.87603e-005 -2.63497e-007 2.99804e-018 -2.42657e-020 -1.42182e-022 0 0 -0 -0.0187562 -0.001176 5.858e-005 5.06224e-018 3.88251e-019 1.21329e-020 0 0 -0 -0.012269 -0.00324817 0.000675346 -1.74678e-018 3.88251e-019 -0 0 0 -0 0 0 -0 0 0 -0 0 0 -0 0 0 -0 0 0 -0 0 0 -0 0 0 -0 0 0 -0 0 0 -0 0 0 -0 0.0149955 -9.10982e-005 2.64101e-007 -9.69331e-018 1.21329e-020 -4.7394e-023 0 0 -0 0.0189956 -0.00119102 -5.96516e-005 -5.41541e-019 0 2.42657e-020 0 0 -0 0.0122698 -0.00324857 -0.000673756 -2.00796e-019 0 -1.94126e-019 0 0 -0 0 0 -0 0 0 -0 3.39842 1.33031 -0.0637918 -5.65207e-008 0.834868 -0.000436188 -3.39935 -2.16518 -0.0642563 -8.89002e-024 -1.18485e-023 -1.48106e-024 -3.39844 1.35642 0.0640283 -3.18788e-007 0.782166 -0.000588827 3.39931 -2.13858 0.0634662 1.1399e-023 0 -0 
0.00460665 32.3363 4.62388 -0 -14.6258 -0 -0.792622 5.91267 -3.86055 -1.19033 11.8651 -7.70049 -1.19033 11.8651 -7.70049 -0.474005 -0.136486 0.00144758 1.15499 -6.04832 -14.4715 3.27256e-006 -1.72342e-005 0.0403357 2.07797 -10.9526 -28.1204 4.8115e-007 9.1295e-008 -54.5717 0.0540786 -0.293545 -0.059835 7.95139e-016 4.77083e-015 1.59028e-015 1.59028e-015 4.77083e-015 3.18055e-015 1.59028e-015 4.47266e-015 3.18055e-015 7.95139e-016 4.77083e-015 1.59028e-015 -0.0145246 -8.82195e-005 -4.57602e-006 -7.95139e-016 -2.67365e-014 1.59028e-015 7.95139e-016 4.77083e-015 1.59028e-015 -0.0187706 -0.00117701 6.44676e-005 -1.59028e-015 -2.98177e-015 -1.59028e-015 7.95139e-016 4.77083e-015 1.59028e-015 -0.0124012 -0.00328218 0.000676007 7.95139e-016 1.49089e-015 -1.59028e-015 7.95139e-016 4.77083e-015 1.59028e-015 1.59028e-015 4.77083e-015 3.18055e-015 1.59028e-015 4.47266e-015 3.18055e-015 3.078e-006 -1.67329e-005 8.82779e-006 -6.60466 -24.4945 23.6079 1.39149e-015 -1.59028e-015 -1.59028e-015 -1.41757e-008 5.2677e-007 -7.92716e-007 1.98785e-016 7.95139e-016 -2.38542e-015 2.56627e-008 4.2244e-007 5.21647e-008 1.68967e-015 0 1.59028e-015 1.98785e-016 7.95139e-016 -2.38542e-015 0.0149396 -9.03491e-005 3.51524e-007 2.68359e-015 7.95139e-016 -0 1.98785e-016 7.95139e-016 -2.38542e-015 0.01899 -0.0011902 -5.94729e-005 -5.66536e-015 0 -0 1.98785e-016 7.95139e-016 -2.38542e-015 0.0122343 -0.00323779 -0.0006745 4.41391e-032 1.59028e-015 -1.59028e-015 1.98785e-016 7.95139e-016 -2.38542e-015 2.56627e-008 4.2244e-007 5.21647e-008 1.68967e-015 0 1.59028e-015 -5.06306 -61.7554 -13.8965 0.0150877 76.3116 -2.66494 -3.34437 -3.62413 -0.105836 4.25363e-007 2.7732e-008 -1.32576e-008 -7.12576 -60.8642 -3.63338 -0.0167166 76.5681 2.67384 3.33885 -3.83374 0.111777 3.7173e-014 -2.1338e-007 -9.66608e-016 
0.0529598 3.91436 5.44047 -0 -26.0015 -0 0.391989 9.78762 -7.28491 2.10834 19.4416 -14.9709 2.10834 19.4416 -14.9709 -0.94606 -0.270966 -0.00749089 -0.00400697 -10.0021 -26.0021 -5.8524e-007 5.99671e-007 0.0716874 -2.9584 -14.2272 -51.1347 2.48203e-014 -1.01814e-014 -97.0163 0.0990415 -0.582369 -0.123643 -9.93923e-017 0 7.95139e-016 -2.98177e-016 0 1.19271e-015 -0 0 1.19271e-015 -9.93923e-017 0 7.95139e-016 -0.0145947 -8.94956e-005 -2.452e-007 -3.97569e-016 -1.59028e-015 -3.97569e-016 -9.93923e-017 0 7.95139e-016 -0.0187401 -0.00117483 5.90647e-005 -2.98177e-016 0 -0 -9.93923e-017 0 7.95139e-016 -0.0122553 -0.00324526 0.000675381 3.97569e-016 3.18055e-015 3.97569e-016 -9.93923e-017 0 7.95139e-016 -2.98177e-016 0 1.19271e-015 -0 0 1.19271e-015 5.76439e-009 -2.16833e-006 -3.34251e-006 3.43038 -35.1942 48.8776 3.97569e-016 0 -0 9.10093e-007 1.32884e-006 1.28843e-007 3.97569e-016 0 -1.59028e-015 -3.97569e-016 1.59028e-015 -1.59028e-015 -7.95139e-016 1.59028e-015 -1.59028e-015 3.97569e-016 0 -1.59028e-015 0.0149717 -9.06619e-005 5.83244e-007 -1.42174e-007 3.03002e-007 2.7774e-007 3.97569e-016 0 -1.59028e-015 0.0189805 -0.00119011 -5.90765e-005 -3.97569e-016 -1.59028e-015 -1.59028e-015 3.97569e-016 0 -1.59028e-015 0.0123403 -0.00326542 -0.000679611 7.95139e-016 6.36111e-015 -0 3.97569e-016 0 -1.59028e-015 -3.97569e-016 1.59028e-015 -1.59028e-015 -7.95139e-016 1.59028e-015 -1.59028e-015 -146.115 -67.6547 -156.468 179.97 47.0662 175.286 -3.34368 -4.34535 -3.28374 7.99963e-007 2.94966e-009 -8.88637e-007 -167.919 -71.6881 -160.725 -179.965 46.6805 -175.246 3.35208 -4.63861 3.32224 7.58303e-022 7.95139e-016 1.51661e-021 
0.0634857 -0.146696 5.55747 -0 -27.6266 -0 0.694567 10.2685 -7.78735 2.89323 20.3403 -16.0949 2.89324 20.3403 -16.0949 -1.41196 -0.400147 -0.0469947 -0.242581 -10.478 -27.6654 5.09322e-007 2.19459e-006 0.0761732 -3.94931 -14.1181 -54.4175 -2.15615e-013 1.16754e-013 -103.08 0.11772 -0.856969 -0.199313 4.21218e-007 4.93329e-008 -4.73316e-008 4.21218e-007 4.93329e-008 -4.73316e-008 -1.19271e-015 0 -0 4.21218e-007 4.93329e-008 -4.73316e-008 -0.0146384 -8.90523e-005 -2.04135e-006 3.97569e-016 3.18055e-015 -0 4.21218e-007 4.93329e-008 -4.73316e-008 -0.0187694 -0.00117672 5.9254e-005 3.97569e-016 -3.02153e-014 1.59028e-015 4.21218e-007 4.93329e-008 -4.73316e-008 -0.012205 -0.00323011 0.000672841 -1.19271e-015 1.59028e-015 -0 4.21218e-007 4.93329e-008 -4.73316e-008 4.21218e-007 4.93329e-008 -4.73316e-008 -1.19271e-015 0 -0 -3.34359e-007 2.89604e-006 -3.41422e-006 5.72876 -35.6685 52.8729 -7.95139e-016 0 1.59028e-015 0 0 -0 -7.95139e-016 0 3.18055e-015 7.95139e-016 -1.59028e-015 1.59028e-015 -3.97569e-016 -1.59028e-015 -1.59028e-015 -7.95139e-016 0 3.18055e-015 0.014966 -9.07478e-005 3.76345e-007 1.76556e-031 -3.18055e-015 3.18055e-015 -7.95139e-016 0 3.18055e-015 0.0190188 -0.00119223 -5.96461e-005 -3.97569e-016 -1.59028e-015 -0 -7.95139e-016 0 3.18055e-015 0.012331 -0.00326283 -0.000680041 -3.97569e-016 1.59028e-015 -0 -7.95139e-016 0 3.18055e-015 7.95139e-016 -1.59028e-015 1.59028e-015 -3.97569e-016 -1.59028e-015 -1.59028e-015 -151.601 -61.5305 -162.775 179.963 39.0257 174.192 -3.28484 -4.65772 -4.02127 -0 -1.59028e-015 -0 -170.594 -65.2768 -161.828 -179.955 38.6284 -174.128 3.29608 -4.95587 4.07609 8.05697e-022 -1.59028e-015 -0 
